<?xml version="1.0" encoding="UTF-8" standalone="no"?>
<svg
   width="500pt"
   height="630pt"
   viewBox="0 0 500 630"
   version="1.1"
   id="svg54"
   sodipodi:docname="3.5cer.svg"
   inkscape:version="1.1.1 (3bf5ae0d25, 2021-09-20)"
   xmlns:inkscape="http://www.inkscape.org/namespaces/inkscape"
   xmlns:sodipodi="http://sodipodi.sourceforge.net/DTD/sodipodi-0.dtd"
   xmlns="http://www.w3.org/2000/svg"
   xmlns:svg="http://www.w3.org/2000/svg">
  <defs
     id="defs58" />
  <sodipodi:namedview
     id="namedview56"
     pagecolor="#ffffff"
     bordercolor="#666666"
     borderopacity="1.0"
     inkscape:pageshadow="2"
     inkscape:pageopacity="0.0"
     inkscape:pagecheckerboard="0"
     inkscape:document-units="pt"
     showgrid="false"
     inkscape:zoom="0.69953064"
     inkscape:cx="288.05029"
     inkscape:cy="470.31535"
     inkscape:window-width="1920"
     inkscape:window-height="1017"
     inkscape:window-x="1072"
     inkscape:window-y="-8"
     inkscape:window-maximized="1"
     inkscape:current-layer="svg54" />
  <g
     id="#fefefdff">
    <path
       fill="#fefefd"
       opacity="1.00"
       d=" M 0.00 0.00 L 500.00 0.00 L 500.00 630.00 L 0.00 630.00 L 0.00 0.00 M 29.42 43.56 C 23.32 44.27 21.30 51.75 21.95 56.95 C 22.05 225.30 21.99 393.65 21.99 562.00 C 22.17 575.43 21.22 588.95 22.71 602.34 C 23.92 607.99 31.01 609.56 35.95 609.05 C 177.64 608.95 319.34 609.01 461.04 609.02 C 465.48 608.42 470.86 609.70 474.66 606.65 C 477.68 603.67 478.32 599.08 478.05 595.05 C 477.95 416.69 478.01 238.32 478.02 59.96 C 477.43 55.50 478.70 50.14 475.65 46.34 C 472.67 43.31 468.09 42.67 464.05 42.95 C 332.37 43.04 200.68 42.99 69.00 42.99 C 55.81 43.11 42.58 42.36 29.42 43.56 Z"
       id="path2" />
    <path
       fill="#fefefd"
       opacity="1.00"
       d=" M 33.04 54.02 C 177.68 53.99 322.32 53.96 466.97 54.04 C 467.13 109.03 466.81 164.01 467.12 219.00 C 466.85 224.49 467.60 230.15 466.53 235.58 C 464.43 238.16 461.45 239.84 458.74 241.72 C 442.89 252.36 425.11 259.64 407.31 266.32 C 372.22 280.19 334.55 285.79 297.18 289.32 C 248.73 293.09 199.62 291.63 151.84 282.25 C 117.28 275.10 83.02 264.91 51.79 248.20 C 45.13 244.73 39.10 240.23 33.31 235.49 C 32.61 175.01 33.15 114.51 33.04 54.02 M 81.39 114.78 C 86.44 117.08 91.49 119.42 96.70 121.34 C 98.11 118.88 99.63 116.48 101.28 114.17 C 109.88 100.57 133.45 102.30 140.30 116.69 C 144.39 125.34 140.11 136.36 131.97 140.95 C 125.18 145.52 116.65 143.55 109.02 144.29 C 108.95 149.44 108.96 154.58 109.04 159.73 C 118.78 160.40 129.63 159.73 137.62 166.39 C 145.18 171.93 148.08 182.76 144.28 191.31 C 138.07 204.68 119.37 210.27 107.07 201.90 C 100.13 198.21 97.15 190.55 93.76 183.92 C 88.80 186.08 83.81 188.17 78.80 190.22 C 82.07 200.13 87.88 209.50 97.00 215.03 C 110.13 224.15 127.95 223.60 142.05 217.06 C 154.95 210.26 164.85 196.15 162.89 181.05 C 163.39 167.78 152.81 157.67 142.11 151.55 C 148.13 147.18 154.36 142.26 157.21 135.16 C 160.38 125.59 159.28 114.61 154.01 105.97 C 145.85 94.16 131.28 87.80 117.04 89.05 C 101.13 88.86 87.09 100.42 81.39 114.78 M 233.86 92.03 C 230.91 113.52 227.69 135.02 225.88 156.64 C 231.48 158.89 237.06 161.19 242.59 163.62 C 248.88 155.98 258.66 150.58 268.89 153.10 C 285.17 154.44 295.20 172.95 289.81 187.83 C 285.36 203.77 264.57 210.80 250.86 202.18 C 243.07 198.17 239.99 189.34 236.43 181.89 C 231.45 183.57 226.54 185.46 221.65 187.39 C 225.87 209.11 248.60 225.27 270.56 221.50 C 291.90 219.63 309.96 199.58 308.05 177.98 C 308.58 157.73 291.67 139.21 271.69 137.26 C 261.71 136.32 251.83 139.39 243.51 144.78 C 244.84 132.51 246.42 120.28 248.18 108.06 C 265.44 107.97 282.71 108.00 299.98 107.97 C 300.04 102.66 300.04 97.35 299.97 92.04 C 277.93 91.95 255.89 91.94 233.86 92.03 M 189.41 195.39 C 181.54 196.75 176.95 207.54 181.98 214.03 C 186.04 221.56 198.19 222.11 202.75 214.77 C 210.13 206.32 200.28 191.28 189.41 195.39 M 316.27 208.40 C 314.37 206.34 312.12 204.47 309.18 204.08 C 308.87 216.04 308.95 228.01 309.01 239.98 C 310.71 239.99 314.11 239.99 315.81 239.99 C 316.07 231.59 315.42 223.06 316.85 214.76 C 318.99 208.18 330.78 207.48 332.23 214.83 C 334.11 223.05 332.66 231.65 333.10 240.00 C 334.55 239.99 337.44 239.98 338.88 239.98 C 339.13 231.94 338.51 223.80 339.83 215.84 C 341.23 209.24 352.65 206.76 355.35 213.61 C 356.72 222.30 355.85 231.22 356.10 240.00 C 357.58 240.00 360.53 239.99 362.00 239.98 C 362.04 230.78 362.38 221.56 361.53 212.39 C 360.90 207.58 355.92 203.47 351.04 203.92 C 345.93 203.50 342.15 207.26 337.59 208.62 C 334.61 207.28 331.89 205.39 328.88 204.12 C 324.14 203.00 319.85 205.70 316.27 208.40 M 377.27 208.40 C 375.37 206.34 373.11 204.47 370.18 204.08 C 369.87 216.04 369.95 228.01 370.01 239.98 C 371.71 239.99 375.11 239.99 376.81 239.99 C 377.07 231.59 376.42 223.06 377.85 214.76 C 379.99 208.18 391.78 207.48 393.23 214.83 C 395.10 223.05 393.66 231.65 394.10 240.00 C 395.55 239.99 398.44 239.98 399.88 239.98 C 400.13 231.94 399.51 223.80 400.83 215.84 C 402.23 209.24 413.65 206.76 416.35 213.61 C 417.72 222.30 416.85 231.22 417.10 240.00 C 418.58 240.00 421.53 239.99 423.00 239.98 C 423.04 230.78 423.38 221.56 422.53 212.39 C 421.90 207.58 416.92 203.47 412.04 203.92 C 406.93 203.50 403.15 207.26 398.59 208.62 C 395.60 207.28 392.89 205.39 389.88 204.12 C 385.14 203.00 380.85 205.70 377.27 208.40 Z"
       id="path4" />
    <path
       fill="#fefefd"
       opacity="1.00"
       d=" M 402.40 329.44 C 422.08 325.31 441.71 339.24 446.90 358.04 C 452.24 374.90 450.05 394.71 438.62 408.60 C 423.22 427.97 388.91 426.23 376.03 404.98 C 367.52 393.41 366.94 378.27 368.52 364.55 C 371.01 347.32 384.66 331.52 402.40 329.44 M 404.44 342.47 C 399.81 342.81 395.69 345.33 392.13 348.12 C 381.11 360.79 380.14 380.17 386.83 395.09 C 392.59 409.21 413.15 413.53 424.25 403.24 C 434.79 393.09 436.43 376.59 432.88 363.00 C 430.86 350.09 417.72 339.40 404.44 342.47 Z"
       id="path6" />
    <path
       fill="#fefefd"
       opacity="1.00"
       d=" M 83.02 331.01 C 88.34 330.91 93.66 330.92 98.99 331.02 C 110.11 360.63 120.85 390.39 132.11 419.95 C 126.77 420.01 121.43 420.01 116.09 419.93 C 113.12 412.06 110.54 404.05 107.69 396.13 C 96.50 395.90 85.30 395.89 74.10 396.06 C 71.13 403.92 68.56 411.93 65.70 419.83 C 60.49 419.98 55.28 420.05 50.07 420.05 C 61.05 390.37 71.95 360.65 83.02 331.01 M 77.85 384.94 C 86.54 384.98 95.22 385.02 103.91 385.07 C 99.60 372.53 95.84 359.80 90.82 347.52 C 86.50 360.00 81.84 372.35 77.85 384.94 Z"
       id="path8" />
    <path
       fill="#fefefd"
       opacity="1.00"
       d=" M 145.04 331.02 C 148.77 331.02 156.23 331.02 159.96 331.02 C 160.36 351.16 159.26 371.34 160.52 391.45 C 160.50 399.39 166.48 407.26 174.44 408.51 C 181.31 409.51 189.96 409.64 194.88 403.87 C 198.80 400.43 199.78 394.92 199.79 389.98 C 200.48 370.34 199.71 350.68 200.03 331.03 C 205.34 330.95 210.64 330.95 215.95 331.02 C 215.45 353.97 217.77 377.22 213.81 399.96 C 211.29 411.86 200.09 420.03 188.40 421.42 C 176.44 422.92 162.42 421.80 153.76 412.25 C 147.40 406.31 145.42 397.34 145.22 388.97 C 144.57 369.66 145.11 350.33 145.04 331.02 Z"
       id="path10" />
    <path
       fill="#fefefd"
       opacity="1.00"
       d=" M 239.04 331.05 C 252.66 331.10 266.30 330.41 279.91 331.28 C 292.37 331.87 303.51 340.55 308.08 351.98 C 312.37 362.08 312.40 373.24 311.96 384.01 C 310.71 398.42 302.42 413.30 288.09 418.09 C 272.03 421.77 255.36 419.51 239.04 419.95 C 238.96 390.31 238.94 360.68 239.04 331.05 M 254.04 343.90 C 253.92 364.96 253.96 386.01 254.02 407.06 C 264.02 406.64 274.69 408.24 284.16 404.21 C 292.93 400.28 297.24 390.22 297.01 381.01 C 297.07 370.66 298.45 357.02 288.94 350.08 C 279.55 341.50 265.50 344.56 254.04 343.90 Z"
       id="path12" />
    <path
       fill="#fefefd"
       opacity="1.00"
       d=" M 332.03 331.02 C 335.77 331.02 343.23 331.02 346.96 331.02 C 347.04 360.67 347.06 390.32 346.97 419.98 C 343.23 419.98 335.77 419.98 332.04 419.98 C 331.96 390.33 331.94 360.67 332.03 331.02 Z"
       id="path14" />
    <path
       fill="#fefefd"
       opacity="1.00"
       d=" M 38.04 468.03 C 166.36 467.95 294.68 468.05 423.00 467.98 C 435.99 467.71 448.99 467.90 461.96 468.78 C 461.89 509.74 462.34 550.71 461.73 591.67 C 399.83 592.47 337.91 591.74 276.00 592.03 C 196.70 589.95 117.35 591.49 38.03 590.96 C 37.98 549.98 37.95 509.00 38.04 468.03 M 72.05 488.02 C 71.93 518.66 71.98 549.31 72.03 579.96 C 76.67 580.10 81.32 579.99 85.97 579.98 C 85.93 566.56 86.06 553.16 86.03 539.75 C 91.83 540.33 97.98 539.94 103.27 542.74 C 107.88 545.59 109.51 551.19 110.74 556.15 C 112.37 564.18 114.39 572.14 116.77 580.00 C 121.51 580.13 126.25 579.97 131.00 579.96 C 127.88 570.06 125.86 559.87 123.08 549.88 C 121.33 543.88 116.76 539.42 112.27 535.33 C 119.04 531.69 125.87 526.10 127.11 518.05 C 129.61 508.31 126.68 495.84 116.96 491.08 C 103.34 483.07 86.87 486.25 72.05 488.02 M 290.06 488.08 C 289.92 518.70 289.96 549.31 290.05 579.93 C 307.92 581.34 327.76 582.49 343.63 572.59 C 360.86 560.44 364.49 536.31 359.98 516.97 C 357.84 502.44 345.10 490.88 331.00 488.04 C 317.62 484.18 303.60 486.48 290.06 488.08 M 144.04 487.05 C 143.95 518.01 143.96 548.98 144.04 579.95 C 161.05 580.06 178.06 580.09 195.08 579.94 C 194.91 576.05 194.76 572.16 194.63 568.29 C 182.42 568.01 170.22 567.90 158.01 567.94 C 157.99 557.64 157.97 547.34 157.99 537.05 C 169.01 536.94 180.05 537.04 191.08 536.92 C 190.91 533.03 190.76 529.15 190.63 525.28 C 179.75 524.93 168.87 524.99 157.99 524.91 C 158.03 516.28 158.01 507.66 157.97 499.04 C 169.31 499.00 180.65 498.97 192.00 498.96 C 191.98 494.98 191.99 491.01 192.00 487.05 C 176.01 486.90 160.03 486.92 144.04 487.05 M 230.47 487.20 C 221.09 518.19 211.51 549.12 202.06 580.09 C 205.68 580.01 212.93 579.87 216.55 579.80 C 219.07 570.87 221.83 562.01 224.27 553.06 C 233.98 552.91 243.71 552.99 253.42 553.36 C 255.90 562.23 258.77 570.99 261.30 579.85 C 264.98 579.88 272.36 579.95 276.05 579.99 C 266.55 548.93 257.51 517.71 247.25 486.90 C 241.65 486.93 236.06 487.02 230.47 487.20 M 367.68 487.09 C 375.71 503.10 384.23 518.86 392.08 534.97 C 393.55 538.13 395.14 541.35 394.75 545.02 C 395.37 556.65 394.97 568.31 395.02 579.96 C 399.67 580.10 404.30 579.99 408.97 579.98 C 409.19 566.57 408.15 553.05 409.85 539.74 C 418.18 521.80 429.07 505.14 437.25 487.11 C 433.46 487.09 425.86 487.04 422.07 487.02 C 415.36 501.34 409.20 515.91 402.55 530.25 C 396.61 515.74 390.02 501.51 383.76 487.14 C 378.39 487.04 373.03 487.03 367.68 487.09 Z"
       id="path16" />
    <path
       fill="#fefefd"
       opacity="1.00"
       d=" M 86.26 497.16 C 94.29 497.55 103.83 495.39 110.19 501.80 C 116.10 508.39 115.16 519.74 108.89 525.88 C 102.38 531.09 93.69 529.48 86.01 530.34 C 85.92 519.27 85.91 508.21 86.26 497.16 Z"
       id="path18" />
    <path
       fill="#fefefd"
       opacity="1.00"
       d=" M 304.03 497.84 C 314.03 497.11 325.40 495.61 333.91 502.14 C 345.25 508.64 347.71 523.04 347.05 534.99 C 346.89 546.04 342.69 557.84 333.46 564.49 C 324.93 570.19 314.17 569.86 304.33 569.91 C 303.65 545.89 304.05 521.86 304.03 497.84 Z"
       id="path20" />
    <path
       fill="#fefefd"
       opacity="1.00"
       d=" M 226.77 541.95 C 230.94 527.90 235.20 513.89 238.54 499.62 C 242.23 513.90 246.58 527.98 250.82 542.11 C 242.80 541.97 234.79 542.05 226.77 541.95 Z"
       id="path22" />
  </g>
  <g
     id="#150f0bff">
    <path
       fill="#150f0b"
       opacity="1.00"
       d=" M 29.42 43.56 C 42.58 42.36 55.81 43.11 69.00 42.99 C 200.68 42.99 332.37 43.04 464.05 42.95 C 468.09 42.67 472.67 43.31 475.65 46.34 C 478.70 50.14 477.43 55.50 478.02 59.96 C 478.01 238.32 477.95 416.69 478.05 595.05 C 478.32 599.08 477.68 603.67 474.66 606.65 C 470.86 609.70 465.48 608.42 461.04 609.02 C 319.34 609.01 177.64 608.95 35.95 609.05 C 31.01 609.56 23.92 607.99 22.71 602.34 C 21.22 588.95 22.17 575.43 21.99 562.00 C 21.99 393.65 22.05 225.30 21.95 56.95 C 21.30 51.75 23.32 44.27 29.42 43.56 M 33.04 54.02 C 33.15 114.51 32.61 175.01 33.31 235.49 C 39.10 240.23 45.13 244.73 51.79 248.20 C 83.02 264.91 117.28 275.10 151.84 282.25 C 199.62 291.63 248.73 293.09 297.18 289.32 C 334.55 285.79 372.22 280.19 407.31 266.32 C 425.11 259.64 442.89 252.36 458.74 241.72 C 461.45 239.84 464.43 238.16 466.53 235.58 C 467.60 230.15 466.85 224.49 467.12 219.00 C 466.81 164.01 467.13 109.03 466.97 54.04 C 322.32 53.96 177.68 53.99 33.04 54.02 M 402.40 329.44 C 384.66 331.52 371.01 347.32 368.52 364.55 C 366.94 378.27 367.52 393.41 376.03 404.98 C 388.91 426.23 423.22 427.97 438.62 408.60 C 450.05 394.71 452.24 374.90 446.90 358.04 C 441.71 339.24 422.08 325.31 402.40 329.44 M 83.02 331.01 C 71.95 360.65 61.05 390.37 50.07 420.05 C 55.28 420.05 60.49 419.98 65.70 419.83 C 68.56 411.93 71.13 403.92 74.10 396.06 C 85.30 395.89 96.50 395.90 107.69 396.13 C 110.54 404.05 113.12 412.06 116.09 419.93 C 121.43 420.01 126.77 420.01 132.11 419.95 C 120.85 390.39 110.11 360.63 98.99 331.02 C 93.66 330.92 88.34 330.91 83.02 331.01 M 145.04 331.02 C 145.11 350.33 144.57 369.66 145.22 388.97 C 145.42 397.34 147.40 406.31 153.76 412.25 C 162.42 421.80 176.44 422.92 188.40 421.42 C 200.09 420.03 211.29 411.86 213.81 399.96 C 217.77 377.22 215.45 353.97 215.95 331.02 C 210.64 330.95 205.34 330.95 200.03 331.03 C 199.71 350.68 200.48 370.34 199.79 389.98 C 199.78 394.92 198.80 400.43 194.88 403.87 C 189.96 409.64 181.31 409.51 174.44 408.51 C 166.48 407.26 160.50 399.39 160.52 391.45 C 159.26 371.34 160.36 351.16 159.96 331.02 C 156.23 331.02 148.77 331.02 145.04 331.02 M 239.04 331.05 C 238.94 360.68 238.96 390.31 239.04 419.95 C 255.36 419.51 272.03 421.77 288.09 418.09 C 302.42 413.30 310.71 398.42 311.96 384.01 C 312.40 373.24 312.37 362.08 308.08 351.98 C 303.51 340.55 292.37 331.87 279.91 331.28 C 266.30 330.41 252.66 331.10 239.04 331.05 M 332.03 331.02 C 331.94 360.67 331.96 390.33 332.04 419.98 C 335.77 419.98 343.23 419.98 346.97 419.98 C 347.06 390.32 347.04 360.67 346.96 331.02 C 343.23 331.02 335.77 331.02 332.03 331.02 M 38.04 468.03 C 37.95 509.00 37.98 549.98 38.03 590.96 C 117.35 591.49 196.70 589.95 276.00 592.03 C 337.91 591.74 399.83 592.47 461.73 591.67 C 462.34 550.71 461.89 509.74 461.96 468.78 C 448.99 467.90 435.99 467.71 423.00 467.98 C 294.68 468.05 166.36 467.95 38.04 468.03 Z"
       id="path25" />
    <path
       fill="#150f0b"
       opacity="1.00"
       d=" M 81.39 114.78 C 87.09 100.42 101.13 88.86 117.04 89.05 C 131.28 87.80 145.85 94.16 154.01 105.97 C 159.28 114.61 160.38 125.59 157.21 135.16 C 154.36 142.26 148.13 147.18 142.11 151.55 C 152.81 157.67 163.39 167.78 162.89 181.05 C 164.85 196.15 154.95 210.26 142.05 217.06 C 127.95 223.60 110.13 224.15 97.00 215.03 C 87.88 209.50 82.07 200.13 78.80 190.22 C 83.81 188.17 88.80 186.08 93.76 183.92 C 97.15 190.55 100.13 198.21 107.07 201.90 C 119.37 210.27 138.07 204.68 144.28 191.31 C 148.08 182.76 145.18 171.93 137.62 166.39 C 129.63 159.73 118.78 160.40 109.04 159.73 C 108.96 154.58 108.95 149.44 109.02 144.29 C 116.65 143.55 125.18 145.52 131.97 140.95 C 140.11 136.36 144.39 125.34 140.30 116.69 C 133.45 102.30 109.88 100.57 101.28 114.17 C 99.63 116.48 98.11 118.88 96.70 121.34 C 91.49 119.42 86.44 117.08 81.39 114.78 Z"
       id="path27" />
    <path
       fill="#150f0b"
       opacity="1.00"
       d=" M 233.86 92.03 C 255.89 91.94 277.93 91.95 299.97 92.04 C 300.04 97.35 300.04 102.66 299.98 107.97 C 282.71 108.00 265.44 107.97 248.18 108.06 C 246.42 120.28 244.84 132.51 243.51 144.78 C 251.83 139.39 261.71 136.32 271.69 137.26 C 291.67 139.21 308.58 157.73 308.05 177.98 C 309.96 199.58 291.90 219.63 270.56 221.50 C 248.60 225.27 225.87 209.11 221.65 187.39 C 226.54 185.46 231.45 183.57 236.43 181.89 C 239.99 189.34 243.07 198.17 250.86 202.18 C 264.57 210.80 285.36 203.77 289.81 187.83 C 295.20 172.95 285.17 154.44 268.89 153.10 C 258.66 150.58 248.88 155.98 242.59 163.62 C 237.06 161.19 231.48 158.89 225.88 156.64 C 227.69 135.02 230.91 113.52 233.86 92.03 Z"
       id="path29" />
    <path
       fill="#150f0b"
       opacity="1.00"
       d=" M 189.41 195.39 C 200.28 191.28 210.13 206.32 202.75 214.77 C 198.19 222.11 186.04 221.56 181.98 214.03 C 176.95 207.54 181.54 196.75 189.41 195.39 Z"
       id="path31" />
    <path
       fill="#150f0b"
       opacity="1.00"
       d=" M 316.27 208.40 C 319.85 205.70 324.14 203.00 328.88 204.12 C 331.89 205.39 334.61 207.28 337.59 208.62 C 342.15 207.26 345.93 203.50 351.04 203.92 C 355.92 203.47 360.90 207.58 361.53 212.39 C 362.38 221.56 362.04 230.78 362.00 239.98 C 360.53 239.99 357.58 240.00 356.10 240.00 C 355.85 231.22 356.72 222.30 355.35 213.61 C 352.65 206.76 341.23 209.24 339.83 215.84 C 338.51 223.80 339.13 231.94 338.88 239.98 C 337.44 239.98 334.55 239.99 333.10 240.00 C 332.66 231.65 334.11 223.05 332.23 214.83 C 330.78 207.48 318.99 208.18 316.85 214.76 C 315.42 223.06 316.07 231.59 315.81 239.99 C 314.11 239.99 310.71 239.99 309.01 239.98 C 308.95 228.01 308.87 216.04 309.18 204.08 C 312.12 204.47 314.37 206.34 316.27 208.40 Z"
       id="path33" />
    <path
       fill="#150f0b"
       opacity="1.00"
       d=" M 377.27 208.40 C 380.85 205.70 385.14 203.00 389.88 204.12 C 392.89 205.39 395.60 207.28 398.59 208.62 C 403.15 207.26 406.93 203.50 412.04 203.92 C 416.92 203.47 421.90 207.58 422.53 212.39 C 423.38 221.56 423.04 230.78 423.00 239.98 C 421.53 239.99 418.58 240.00 417.10 240.00 C 416.85 231.22 417.72 222.30 416.35 213.61 C 413.65 206.76 402.23 209.24 400.83 215.84 C 399.51 223.80 400.13 231.94 399.88 239.98 C 398.44 239.98 395.55 239.99 394.10 240.00 C 393.66 231.65 395.10 223.05 393.23 214.83 C 391.78 207.48 379.99 208.18 377.85 214.76 C 376.42 223.06 377.07 231.59 376.81 239.99 C 375.11 239.99 371.71 239.99 370.01 239.98 C 369.95 228.01 369.87 216.04 370.18 204.08 C 373.11 204.47 375.37 206.34 377.27 208.40 Z"
       id="path35" />
    <path
       fill="#150f0b"
       opacity="1.00"
       d=" M 404.44 342.47 C 417.72 339.40 430.86 350.09 432.88 363.00 C 436.43 376.59 434.79 393.09 424.25 403.24 C 413.15 413.53 392.59 409.21 386.83 395.09 C 380.14 380.17 381.11 360.79 392.13 348.12 C 395.69 345.33 399.81 342.81 404.44 342.47 Z"
       id="path37" />
    <path
       fill="#150f0b"
       opacity="1.00"
       d=" M 254.04 343.90 C 265.50 344.56 279.55 341.50 288.94 350.08 C 298.45 357.02 297.07 370.66 297.01 381.01 C 297.24 390.22 292.93 400.28 284.16 404.21 C 274.69 408.24 264.02 406.64 254.02 407.06 C 253.96 386.01 253.92 364.96 254.04 343.90 Z"
       id="path39" />
    <path
       fill="#150f0b"
       opacity="1.00"
       d=" M 77.85 384.94 C 81.84 372.35 86.50 360.00 90.82 347.52 C 95.84 359.80 99.60 372.53 103.91 385.07 C 95.22 385.02 86.54 384.98 77.85 384.94 Z"
       id="path41" />
    <path
       fill="#150f0b"
       opacity="1.00"
       d=" M 72.05 488.02 C 86.87 486.25 103.34 483.07 116.96 491.08 C 126.68 495.84 129.61 508.31 127.11 518.05 C 125.87 526.10 119.04 531.69 112.27 535.33 C 116.76 539.42 121.33 543.88 123.08 549.88 C 125.86 559.87 127.88 570.06 131.00 579.96 C 126.25 579.97 121.51 580.13 116.77 580.00 C 114.39 572.14 112.37 564.18 110.74 556.15 C 109.51 551.19 107.88 545.59 103.27 542.74 C 97.98 539.94 91.83 540.33 86.03 539.75 C 86.06 553.16 85.93 566.56 85.97 579.98 C 81.32 579.99 76.67 580.10 72.03 579.96 C 71.98 549.31 71.93 518.66 72.05 488.02 M 86.26 497.16 C 85.91 508.21 85.92 519.27 86.01 530.34 C 93.69 529.48 102.38 531.09 108.89 525.88 C 115.16 519.74 116.10 508.39 110.19 501.80 C 103.83 495.39 94.29 497.55 86.26 497.16 Z"
       id="path43" />
    <path
       fill="#150f0b"
       opacity="1.00"
       d=" M 290.06 488.08 C 303.60 486.48 317.62 484.18 331.00 488.04 C 345.10 490.88 357.84 502.44 359.98 516.97 C 364.49 536.31 360.86 560.44 343.63 572.59 C 327.76 582.49 307.92 581.34 290.05 579.93 C 289.96 549.31 289.92 518.70 290.06 488.08 M 304.03 497.84 C 304.05 521.86 303.65 545.89 304.33 569.91 C 314.17 569.86 324.93 570.19 333.46 564.49 C 342.69 557.84 346.89 546.04 347.05 534.99 C 347.71 523.04 345.25 508.64 333.91 502.14 C 325.40 495.61 314.03 497.11 304.03 497.84 Z"
       id="path45" />
    <path
       fill="#150f0b"
       opacity="1.00"
       d=" M 144.04 487.05 C 160.03 486.92 176.01 486.90 192.00 487.05 C 191.99 491.01 191.98 494.98 192.00 498.96 C 180.65 498.97 169.31 499.00 157.97 499.04 C 158.01 507.66 158.03 516.28 157.99 524.91 C 168.87 524.99 179.75 524.93 190.63 525.28 C 190.76 529.15 190.91 533.03 191.08 536.92 C 180.05 537.04 169.01 536.94 157.99 537.05 C 157.97 547.34 157.99 557.64 158.01 567.94 C 170.22 567.90 182.42 568.01 194.63 568.29 C 194.76 572.16 194.91 576.05 195.08 579.94 C 178.06 580.09 161.05 580.06 144.04 579.95 C 143.96 548.98 143.95 518.01 144.04 487.05 Z"
       id="path47" />
    <path
       fill="#150f0b"
       opacity="1.00"
       d=" M 230.47 487.20 C 236.06 487.02 241.65 486.93 247.25 486.90 C 257.51 517.71 266.55 548.93 276.05 579.99 C 272.36 579.95 264.98 579.88 261.30 579.85 C 258.77 570.99 255.90 562.23 253.42 553.36 C 243.71 552.99 233.98 552.91 224.27 553.06 C 221.83 562.01 219.07 570.87 216.55 579.80 C 212.93 579.87 205.68 580.01 202.06 580.09 C 211.51 549.12 221.09 518.19 230.47 487.20 M 226.77 541.95 C 234.79 542.05 242.80 541.97 250.82 542.11 C 246.58 527.98 242.23 513.90 238.54 499.62 C 235.20 513.89 230.94 527.90 226.77 541.95 Z"
       id="path49" />
    <path
       fill="#150f0b"
       opacity="1.00"
       d=" M 367.68 487.09 C 373.03 487.03 378.39 487.04 383.76 487.14 C 390.02 501.51 396.61 515.74 402.55 530.25 C 409.20 515.91 415.36 501.34 422.07 487.02 C 425.86 487.04 433.46 487.09 437.25 487.11 C 429.07 505.14 418.18 521.80 409.85 539.74 C 408.15 553.05 409.19 566.57 408.97 579.98 C 404.30 579.99 399.67 580.10 395.02 579.96 C 394.97 568.31 395.37 556.65 394.75 545.02 C 395.14 541.35 393.55 538.13 392.08 534.97 C 384.23 518.86 375.71 503.10 367.68 487.09 Z"
       id="path51" />
  </g>
</svg>
